<mxfile host="app.diagrams.net" modified="2024-01-20T20:03:32.162Z" agent="Mozilla/5.0 (Windows NT 10.0; Win64; x64) AppleWebKit/537.36 (KHTML, like Gecko) Chrome/120.0.0.0 Safari/537.36" version="22.1.21" etag="loDVXuI6eg3RbiRVDL4x" type="github">
  <diagram name="Page-1" id="ZYqq1FXJt1Jxydo_bB50">
    <mxGraphModel>
      <root>
        <mxCell id="0" />
        <mxCell id="1" parent="0" />
      </root>
    </mxGraphModel>
  </diagram>
</mxfile>
